<svg width="100%" height="100%" viewBox="0 0 15.6 11.6" fill="none" xmlns="http://www.w3.org/2000/svg">
<g>
<path d="M0 0.8C0 0.358172 0.358172 0 0.8 0H14.8C15.2418 0 15.6 0.358172 15.6 0.8C15.6 1.24183 15.2418 1.6 14.8 1.6H0.8C0.358172 1.6 0 1.24183 0 0.8Z" fill="currentColor"/>
<path d="M0 5.8C0 5.35817 0.358172 5 0.8 5H11.8C12.2418 5 12.6 5.35817 12.6 5.8C12.6 6.24183 12.2418 6.6 11.8 6.6H0.8C0.358172 6.6 0 6.24183 0 5.8Z" fill="currentColor"/>
<path d="M0.8 10C0.358172 10 0 10.3582 0 10.8C0 11.2418 0.358172 11.6 0.8 11.6H14.8C15.2418 11.6 15.6 11.2418 15.6 10.8C15.6 10.3582 15.2418 10 14.8 10H0.8Z" fill="currentColor"/>
</g>
</svg>
